<?xml version="1.0" encoding="UTF-8"?>
<svg width="512px" height="512px" viewBox="0 0 512 512" version="1.1" xmlns="http://www.w3.org/2000/svg" xmlns:xlink="http://www.w3.org/1999/xlink">
    <!-- Generator: Sketch 60.1 (88133) - https://sketch.com -->
    <title>Logo</title>
    <desc>Created with Sketch.</desc>
    <g id="AnimatedSVG" stroke="none" stroke-width="1" fill="none" fill-rule="evenodd">
        <g id="Logo" transform="translate(-23.000000, 0.000000)">
            <rect id="invisible" fill-opacity="0.01" fill="#FFFFFF" x="23" y="0" width="512" height="512"></rect>
            <g id="collections-24px" transform="translate(0.000000, 5.000000)">
                <polygon id="Path" points="0 0 503 0 503 503 0 503"></polygon>
                <path d="M461,335.3 L461,83.9 C461,60.855 442.145,42 419.1,42 L167.7,42 C144.655,42 125.8,60.855 125.8,83.9 L125.8,335.3 C125.8,358.345 144.655,377.2 167.7,377.2 L419.1,377.2 C442.145,377.2 461,358.345 461,335.3 Z M230.55,251.5 L273.0785,308.2745 L335.3,230.55 L419.1,335.3 L167.7,335.3 L230.55,251.5 Z M42,125.8 L42,419.1 C42,442.145 60.855,461 83.9,461 L377.2,461 L377.2,419.1 L83.9,419.1 L83.9,125.8 L42,125.8 Z" id="Shape" fill="#000000" fill-rule="nonzero"></path>
            </g>
            <g id="Trademark-01" transform="translate(218.000000, 86.000000)" fill="#FFFFFF" fill-rule="nonzero" stroke="#000000" stroke-width="10">
                <path d="M129.163636,5.36585366 L129.163636,23.0731707 C129.163636,24.1463415 128.625455,25.2195122 127.549091,26.2926829 C126.472727,27.3658537 125.396364,27.902439 124.32,27.902439 L79.6509091,27.902439 L79.6509091,149.170732 C79.6509091,150.243902 79.1127273,151.853659 78.0363636,152.390244 C76.96,152.926829 75.8836364,154 74.8072727,154 L54.3563636,154 C53.28,154 51.6654545,153.463415 51.1272727,152.390244 C50.0509091,151.317073 49.5127273,150.243902 49.5127273,149.170732 L49.5127273,27.3658537 L4.84363636,27.3658537 C3.76727273,27.3658537 2.15272727,26.8292683 1.61454545,25.7560976 C0.538181818,24.6829268 0,23.6097561 0,22.5365854 L0,4.82926829 C0,3.2195122 0.538181818,2.14634146 1.61454545,1.6097561 C2.69090909,0.536585366 3.76727273,0 4.84363636,0 L123.781818,0 C124.858182,0 126.472727,0.536585366 127.010909,1.6097561 C128.625455,3.2195122 129.163636,4.29268293 129.163636,5.36585366 Z M284.698182,4.82926829 L296,148.634146 C296,149.707317 295.461818,151.317073 294.923636,152.390244 C293.847273,153.463415 292.770909,154 291.694545,154 L271.781818,154 C270.705455,154 269.629091,153.463415 268.552727,152.926829 C267.476364,151.853659 266.938182,151.317073 266.938182,149.707317 L259.941818,61.7073171 L231.418182,125.560976 C230.88,127.707317 229.265455,128.243902 227.112727,128.243902 L209.352727,128.243902 C207.2,128.243902 206.123636,127.170732 205.047273,125.560976 L177.061818,61.1707317 L170.065455,149.707317 C170.065455,150.780488 169.527273,151.853659 168.450909,152.926829 C167.374545,154 166.298182,154 165.221818,154 L144.770909,154 C143.694545,154 142.08,153.463415 141.541818,152.390244 C140.465455,151.317073 139.927273,150.243902 139.927273,148.634146 L151.767273,4.82926829 C151.767273,3.75609756 152.305455,2.68292683 153.381818,1.6097561 C154.458182,0.536585366 155.534545,0.536585366 156.610909,0.536585366 L178.138182,0.536585366 C180.290909,0.536585366 181.367273,1.6097561 182.443636,3.2195122 L215.272727,81.0243902 C216.349091,83.1707317 217.425455,85.8536585 218.501818,88.5365854 C219.04,88 219.04,86.3902439 220.116364,84.7804878 C221.192727,83.1707317 221.192727,81.5609756 221.730909,81.0243902 L255.098182,3.2195122 C256.174545,1.07317073 257.250909,0.536585366 259.403636,0.536585366 L280.392727,0.536585366 C281.469091,0.536585366 282.545455,1.07317073 283.621818,1.6097561 C284.16,2.68292683 284.698182,3.75609756 284.698182,4.82926829 Z" id="XMLID_6_"></path>
            </g>
        </g>
    </g>
</svg>